<?xml version="1.0" encoding="UTF-8"?>
<svg width="200px" height="208px" viewBox="0 0 200 208" version="1.1" xmlns="http://www.w3.org/2000/svg" xmlns:xlink="http://www.w3.org/1999/xlink">
    <!-- Generator: Sketch 52.4 (67378) - http://www.bohemiancoding.com/sketch -->
    <title>Path</title>
    <desc>Created with Sketch.</desc>
    <g id="#2" stroke="none" stroke-width="1" fill="none" fill-rule="evenodd">
        <g transform="translate(-242.000000, -2923.000000)" id="Group-2" stroke="#50E3C2" stroke-width="5">
            <g transform="translate(226.000000, 2911.000000)">
                <g id="Group-3">
                    <g id="Group">
                        <path d="M115.860935,21.6643155 C68.683316,22.9039399 80.6870684,14.7337974 46.5062818,43.2948236 C43.1898351,46.0660039 39.6320212,49.1199143 38.1020643,53.1447818 C14.5860055,115.00863 10.2831495,231.723288 103.548518,223.478139 C117.236767,222.268025 143.338984,206.166679 148.635794,203.053265 C202.532756,171.373153 245.772178,111.090886 178.868735,62.3170629 C163.758251,51.3012462 117.937883,46.2129166 110.022466,59.0074769 C106.366796,64.9165383 106.577682,75.2146247 98.6314944,78.6758734 C97.9217727,78.9850183 95.8552616,78.686371 96.3755419,78.1163958 C97.3452322,77.0540848 99.0975128,77.1550399 100.458498,76.6743619" id="Path" transform="translate(118.385984, 122.684011) rotate(-345.000000) translate(-118.385984, -122.684011) "></path>
                    </g>
                </g>
            </g>
        </g>
    </g>
</svg>