<?xml version="1.0" encoding="UTF-8"?>
<svg width="152px" height="149px" viewBox="0 0 152 149" version="1.1" xmlns="http://www.w3.org/2000/svg" xmlns:xlink="http://www.w3.org/1999/xlink">
    <!-- Generator: Sketch 52.4 (67378) - http://www.bohemiancoding.com/sketch -->
    <title>footer_deco</title>
    <desc>Created with Sketch.</desc>
    <g id="#2" stroke="none" stroke-width="1" fill="none" fill-rule="evenodd">
        <g transform="translate(-1156.000000, -4199.000000)" id="footer_deco" stroke="#FFFFFF" stroke-width="5">
            <path d="M1239.04476,4204.42661 C1203.84128,4205.34778 1212.79836,4199.27651 1187.293,4220.50036 C1184.8183,4222.55964 1182.16349,4224.82902 1181.02185,4227.81992 C1163.4744,4273.79128 1160.26365,4360.52258 1229.85735,4354.39557 C1240.07139,4353.49633 1259.54861,4341.53133 1263.50103,4339.21773 C1303.71842,4315.67607 1335.98325,4270.87999 1286.06056,4234.63589 C1274.78526,4226.44998 1240.59456,4222.66881 1234.68815,4232.17652 C1231.96032,4236.56758 1232.11769,4244.22014 1226.18832,4246.79221 C1225.65873,4247.02194 1224.11672,4246.80001 1224.50495,4246.37646 C1225.22852,4245.58705 1226.53606,4245.66207 1227.55161,4245.30488" transform="translate(1240.928924, 4279.494901) rotate(-300.000000) translate(-1240.928924, -4279.494901) "></path>
        </g>
    </g>
</svg>