<?xml version="1.0" encoding="UTF-8"?>
<svg width="32px" height="32px" viewBox="0 0 32 32" version="1.1" xmlns="http://www.w3.org/2000/svg" xmlns:xlink="http://www.w3.org/1999/xlink">
    <!-- Generator: Sketch 53 (72520) - https://sketchapp.com -->
    <title>linkedin-in-brands</title>
    <desc>Created with Sketch.</desc>
    <g id="#2" stroke="none" stroke-width="1" fill="none" fill-rule="evenodd">
        <g transform="translate(-1233.000000, -4265.000000)" fill="#000000" fill-rule="nonzero" id="Group-4">
            <g transform="translate(1233.000000, 4265.000000)">
                <g id="linkedin-in-brands">
                    <path d="M7.1626869,32 L0.52845347,32 L0.52845347,10.6357143 L7.1626869,10.6357143 L7.1626869,32 Z M3.84199955,7.72142857 C1.72104441,7.72142857 0,5.96428571 0,3.84285714 C0,1.72142857 1.72104441,0 3.84199955,0 C5.9629547,0 7.68399911,1.72142857 7.68399911,3.84285714 C7.68399911,5.96428571 5.9629547,7.72142857 3.84199955,7.72142857 Z M31.9928587,32 L25.3729078,32 L25.3729078,21.6 C25.3729078,19.1214286 25.322919,15.9428571 21.9236778,15.9428571 C18.4744477,15.9428571 17.9459942,18.6357143 17.9459942,21.4214286 L17.9459942,32 L11.318902,32 L11.318902,10.6357143 L17.6817675,10.6357143 L17.6817675,13.55 L17.7746039,13.55 C18.6601205,11.8714286 20.8239232,10.1 24.0517742,10.1 C30.7645615,10.1 32,14.5214286 32,20.2642857 L32,32 L31.9928587,32 Z" id="Shape"></path>
                </g>
            </g>
        </g>
    </g>
</svg>