<?xml version="1.0" encoding="UTF-8"?>
<svg width="39px" height="32px" viewBox="0 0 39 32" version="1.1" xmlns="http://www.w3.org/2000/svg" xmlns:xlink="http://www.w3.org/1999/xlink">
    <!-- Generator: Sketch 53 (72520) - https://sketchapp.com -->
    <title>twitter-brands</title>
    <desc>Created with Sketch.</desc>
    <g id="#2" stroke="none" stroke-width="1" fill="none" fill-rule="evenodd">
        <g transform="translate(-1297.000000, -4266.000000)" fill="#000000" fill-rule="nonzero" id="Group-4">
            <g transform="translate(1233.000000, 4265.000000)">
                <g id="twitter-brands" transform="translate(64.000000, 1.000000)">
                    <path d="M34.5700713,7.97497096 C34.5945293,8.32495425 34.5945293,8.67501449 34.5945293,9.02499778 C34.5945293,19.6999497 26.6488388,32 12.1264287,32 C7.65234494,32 3.49613993,30.6749423 0,28.3750412 C0.63568233,28.4499936 1.2468314,28.4750034 1.90697173,28.4750034 C5.59862519,28.4750034 8.99700836,27.2000423 11.7107932,25.0250363 C8.23911127,24.9500069 5.32973766,22.6250189 4.32733578,19.4249959 C4.81634534,19.4999483 5.30527965,19.5499679 5.81874722,19.5499679 C6.52772831,19.5499679 7.23678465,19.4499287 7.89684972,19.275014 C4.27849503,18.5249509 1.56463494,15.2749852 1.56463494,11.3499857 L1.56463494,11.2500234 C2.61587757,11.8500278 3.83840147,12.2250209 5.13407363,12.2749635 C3.00705511,10.8249338 1.61355095,8.34996405 1.61355095,5.54994385 C1.61355095,4.0499715 2.00465324,2.6749712 2.68925158,1.47496255 C6.57656906,6.37495942 12.4197743,9.57490555 18.9718853,9.92496579 C18.8496706,9.32496146 18.7762966,8.70002429 18.7762966,8.07501016 C18.7762966,3.62495882 22.2968945,0 26.6731463,0 C28.9468376,0 31.0004821,0.974997415 32.4429775,2.54999916 C34.2276592,2.20001587 35.9390422,1.52498214 37.4549116,0.600004329 C36.86807,2.47504671 35.6212386,4.05004846 33.9832297,5.04997872 C35.5723979,4.87506403 37.1126501,4.42496459 38.5306122,3.80002741 C37.4550621,5.399962 36.1103235,6.82490495 34.5700713,7.97497096 Z" id="Path"></path>
                </g>
            </g>
        </g>
    </g>
</svg>